<svg width="15" height="11" viewBox="0 0 15 11" fill="none" xmlns="http://www.w3.org/2000/svg">
<path d="M14.3176 0.557519C14.3758 0.615576 14.4219 0.684545 14.4534 0.760477C14.485 0.836408 14.5012 0.91781 14.5012 1.00002C14.5012 1.08223 14.485 1.16363 14.4534 1.23956C14.4219 1.31549 14.3758 1.38446 14.3176 1.44252L5.56756 10.1925C5.5095 10.2507 5.44053 10.2969 5.3646 10.3284C5.28867 10.3599 5.20727 10.3761 5.12506 10.3761C5.04285 10.3761 4.96145 10.3599 4.88551 10.3284C4.80958 10.2969 4.74061 10.2507 4.68256 10.1925L0.307557 5.81752C0.190199 5.70016 0.124268 5.54099 0.124268 5.37502C0.124268 5.20905 0.190199 5.04988 0.307557 4.93252C0.424915 4.81516 0.584087 4.74923 0.750057 4.74923C0.916027 4.74923 1.0752 4.81516 1.19256 4.93252L5.12506 8.86627L13.4326 0.557519C13.4906 0.499314 13.5596 0.453136 13.6355 0.421628C13.7114 0.39012 13.7928 0.373901 13.8751 0.373901C13.9573 0.373901 14.0387 0.39012 14.1146 0.421628C14.1905 0.453136 14.2595 0.499314 14.3176 0.557519Z" fill="white"/>
</svg>
