<svg width="21" height="17" viewBox="0 0 21 17" fill="none" xmlns="http://www.w3.org/2000/svg">
<path d="M11.9609 0.0450439C7.22759 0.0450439 3.38949 3.81766 3.38949 8.47024H0.532349L4.23711 12.1118L4.30378 12.2429L8.1514 8.47024H5.29425C5.29425 4.8474 8.27521 1.91731 11.9609 1.91731C15.6466 1.91731 18.6276 4.8474 18.6276 8.47024C18.6276 12.0931 15.6466 15.0232 11.9609 15.0232C10.1228 15.0232 8.45616 14.2836 7.25616 13.0947L5.90378 14.424C7.45616 15.9499 9.58949 16.8954 11.9609 16.8954C16.6943 16.8954 20.5323 13.1228 20.5323 8.47024C20.5323 3.81766 16.6943 0.0450439 11.9609 0.0450439ZM11.0085 4.72571V9.40637L15.0847 11.7841L15.7704 10.6514L12.4371 8.70427V4.72571H11.0085Z" fill="#1690F8"/>
</svg>
