<svg width="20" height="20" viewBox="0 0 20 20" fill="none" xmlns="http://www.w3.org/2000/svg">
<path fill-rule="evenodd" clip-rule="evenodd" d="M7.41622 1.08726C7.75268 0.742931 8.15458 0.469332 8.59828 0.282535C9.04198 0.0957375 9.51855 -0.000488281 9.99997 -0.000488281C10.4814 -0.000488281 10.958 0.0957375 11.4017 0.282535C11.8454 0.469332 12.2473 0.742931 12.5837 1.08726L13.3612 1.88476L14.4737 1.87101C14.9553 1.86531 15.4331 1.95595 15.8791 2.13762C16.3252 2.31928 16.7304 2.58829 17.0709 2.92883C17.4114 3.26937 17.6804 3.67456 17.8621 4.12058C18.0438 4.5666 18.1344 5.04444 18.1287 5.52601L18.1162 6.63851L18.9112 7.41601C19.2555 7.75247 19.5291 8.15436 19.7159 8.59807C19.9027 9.04177 19.999 9.51833 19.999 9.99976C19.999 10.4812 19.9027 10.9577 19.7159 11.4014C19.5291 11.8452 19.2555 12.247 18.9112 12.5835L18.115 13.361L18.1287 14.4735C18.1344 14.9551 18.0438 15.4329 17.8621 15.8789C17.6804 16.3249 17.4114 16.7301 17.0709 17.0707C16.7304 17.4112 16.3252 17.6802 15.8791 17.8619C15.4331 18.0436 14.9553 18.1342 14.4737 18.1285L13.3612 18.116L12.5837 18.911C12.2473 19.2553 11.8454 19.5289 11.4017 19.7157C10.958 19.9025 10.4814 19.9988 9.99997 19.9988C9.51855 19.9988 9.04198 19.9025 8.59828 19.7157C8.15458 19.5289 7.75268 19.2553 7.41622 18.911L6.63872 18.1148L5.52622 18.1285C5.04466 18.1342 4.56682 18.0436 4.1208 17.8619C3.67478 17.6802 3.26958 17.4112 2.92904 17.0707C2.5885 16.7301 2.31949 16.3249 2.13783 15.8789C1.95617 15.4329 1.86552 14.9551 1.87122 14.4735L1.88372 13.361L1.08872 12.5835C0.744396 12.247 0.470796 11.8452 0.283999 11.4014C0.0972024 10.9577 0.000976562 10.4812 0.000976562 9.99976C0.000976562 9.51833 0.0972024 9.04177 0.283999 8.59807C0.470796 8.15436 0.744396 7.75247 1.08872 7.41601L1.88497 6.63851L1.87122 5.52601C1.86552 5.04444 1.95617 4.5666 2.13783 4.12058C2.31949 3.67456 2.5885 3.26937 2.92904 2.92883C3.26958 2.58829 3.67478 2.31928 4.1208 2.13762C4.56682 1.95595 5.04466 1.86531 5.52622 1.87101L6.63872 1.88351L7.41622 1.08851V1.08726ZM8.75247 13.7498C8.75247 13.5856 8.7848 13.4231 8.84762 13.2714C8.91044 13.1197 9.00251 12.9819 9.11859 12.8659C9.23466 12.7498 9.37246 12.6577 9.52412 12.5949C9.67577 12.5321 9.83832 12.4998 10.0025 12.4998C10.1666 12.4998 10.3292 12.5321 10.4808 12.5949C10.6325 12.6577 10.7703 12.7498 10.8864 12.8659C11.0024 12.9819 11.0945 13.1197 11.1573 13.2714C11.2201 13.4231 11.2525 13.5856 11.2525 13.7498C11.2525 14.0813 11.1208 14.3992 10.8864 14.6336C10.6519 14.8681 10.334 14.9998 10.0025 14.9998C9.67095 14.9998 9.35301 14.8681 9.11859 14.6336C8.88417 14.3992 8.75247 14.0813 8.75247 13.7498ZM10.755 11.216C10.6925 11.6985 10.4825 11.9998 10.0625 11.9998C9.59122 11.9998 9.33122 11.6035 9.33122 11.0685V10.931C9.33122 10.0223 9.71497 9.42101 10.4887 8.87976C11.2562 8.32976 11.5162 7.92726 11.5162 7.22351C11.5162 6.42601 10.9912 5.86851 10.2287 5.86851C9.54122 5.86851 9.08372 6.27226 8.88622 7.01101C8.74997 7.46601 8.52122 7.64851 8.18122 7.64851C7.75372 7.64976 7.49997 7.34101 7.49997 6.84976C7.49997 6.53601 7.55622 6.26476 7.67372 5.98726C8.05747 4.98976 9.02247 4.37476 10.2975 4.37476C11.9737 4.37476 13.125 5.50226 13.125 7.15851C13.125 8.27851 12.655 9.04726 11.8125 9.64101C11.0025 10.1973 10.805 10.5485 10.755 11.216Z" fill="#1690F8"/>
</svg>
