<svg width="26" height="23" viewBox="0 0 26 23" fill="none" xmlns="http://www.w3.org/2000/svg">
<path d="M7.49132 19.5337C6.38021 19.5337 5.2691 18.5615 4.71354 18.1448C1.93576 16.2003 1.10243 15.5059 0.546875 15.0892V20.9226C0.546875 21.6895 1.16884 22.3115 1.93576 22.3115H13.0469C13.8138 22.3115 14.4358 21.6895 14.4358 20.9226V15.0892C13.8802 15.5059 13.0469 16.2003 10.2691 18.1448C9.71354 18.5615 8.60243 19.5337 7.49132 19.5337ZM13.0469 11.2003H1.93576C1.16884 11.2003 0.546875 11.8223 0.546875 12.5892V13.2837C1.65799 14.117 1.5191 14.117 5.54687 17.0337C5.96354 17.3115 6.79687 18.1448 7.49132 18.1448C8.18576 18.1448 9.0191 17.3115 9.43576 17.1726C13.4635 14.2559 13.3247 14.2559 14.4358 13.4226V12.5892C14.4358 11.8223 13.8138 11.2003 13.0469 11.2003ZM24.158 7.03368H10.2691C9.50217 7.03368 8.88021 7.65564 8.88021 8.42257V9.81146H13.0469C14.4883 9.81146 15.6766 10.9148 15.8121 12.321L15.8247 12.3115V18.1448H24.158C24.9249 18.1448 25.5469 17.5228 25.5469 16.7559V8.42257C25.5469 7.65564 24.9249 7.03368 24.158 7.03368ZM22.7691 12.5892H19.9913V9.81146H22.7691V12.5892ZM7.49132 8.42257C7.49132 6.89088 8.73741 5.64479 10.2691 5.64479H19.9913V1.47812C19.9913 0.711195 19.3694 0.0892334 18.6024 0.0892334H4.71354C3.94661 0.0892334 3.32465 0.711195 3.32465 1.47812V9.81146H7.49132V8.42257Z" fill="#1690F8"/>
</svg>
