<svg width="60" height="60" viewBox="0 0 60 60" fill="none" xmlns="http://www.w3.org/2000/svg">
<circle cx="30" cy="30" r="30" fill="#1690F8"/>
<path d="M39.3125 27.5938H32.2812V20.5625C32.2812 19.6997 31.5815 19 30.7188 19H29.1562C28.2935 19 27.5938 19.6997 27.5938 20.5625V27.5938H20.5625C19.6997 27.5938 19 28.2935 19 29.1562V30.7188C19 31.5815 19.6997 32.2812 20.5625 32.2812H27.5938V39.3125C27.5938 40.1753 28.2935 40.875 29.1562 40.875H30.7188C31.5815 40.875 32.2812 40.1753 32.2812 39.3125V32.2812H39.3125C40.1753 32.2812 40.875 31.5815 40.875 30.7188V29.1562C40.875 28.2935 40.1753 27.5938 39.3125 27.5938Z" fill="white"/>
</svg>
