<svg width="20" height="20" viewBox="0 0 20 20" fill="none" xmlns="http://www.w3.org/2000/svg">
<path fill-rule="evenodd" clip-rule="evenodd" d="M10 18.75C12.3206 18.75 14.5462 17.8281 16.1872 16.1872C17.8281 14.5462 18.75 12.3206 18.75 10C18.75 7.67936 17.8281 5.45376 16.1872 3.81282C14.5462 2.17187 12.3206 1.25 10 1.25C7.67936 1.25 5.45376 2.17187 3.81282 3.81282C2.17187 5.45376 1.25 7.67936 1.25 10C1.25 12.3206 2.17187 14.5462 3.81282 16.1872C5.45376 17.8281 7.67936 18.75 10 18.75V18.75ZM10 20C12.6522 20 15.1957 18.9464 17.0711 17.0711C18.9464 15.1957 20 12.6522 20 10C20 7.34784 18.9464 4.8043 17.0711 2.92893C15.1957 1.05357 12.6522 0 10 0C7.34784 0 4.8043 1.05357 2.92893 2.92893C1.05357 4.8043 0 7.34784 0 10C0 12.6522 1.05357 15.1957 2.92893 17.0711C4.8043 18.9464 7.34784 20 10 20V20Z" fill="#1690F8"/>
<path fill-rule="evenodd" clip-rule="evenodd" d="M10.4425 14.1923C10.5007 14.1343 10.5469 14.0653 10.5784 13.9894C10.6099 13.9134 10.6261 13.832 10.6261 13.7498C10.6261 13.6676 10.6099 13.5862 10.5784 13.5103C10.5469 13.4343 10.5007 13.3654 10.4425 13.3073L7.13377 9.99981L10.4425 6.69231C10.5006 6.6342 10.5467 6.56522 10.5782 6.48929C10.6096 6.41337 10.6258 6.33199 10.6258 6.24981C10.6258 6.16763 10.6096 6.08626 10.5782 6.01033C10.5467 5.93441 10.5006 5.86542 10.4425 5.80731C10.3844 5.7492 10.3154 5.70311 10.2395 5.67166C10.1636 5.64021 10.0822 5.62402 10 5.62402C9.91784 5.62402 9.83646 5.64021 9.76054 5.67166C9.68461 5.70311 9.61563 5.7492 9.55752 5.80731L5.80752 9.55731C5.74931 9.61537 5.70314 9.68434 5.67163 9.76027C5.64012 9.8362 5.6239 9.9176 5.6239 9.99981C5.6239 10.082 5.64012 10.1634 5.67163 10.2394C5.70314 10.3153 5.74931 10.3843 5.80752 10.4423L9.55752 14.1923C9.61558 14.2505 9.68454 14.2967 9.76048 14.3282C9.83641 14.3597 9.91781 14.3759 10 14.3759C10.0822 14.3759 10.1636 14.3597 10.2396 14.3282C10.3155 14.2967 10.3845 14.2505 10.4425 14.1923Z" fill="#1690F8"/>
<path fill-rule="evenodd" clip-rule="evenodd" d="M14.375 10C14.375 9.83424 14.3092 9.67527 14.1919 9.55806C14.0747 9.44085 13.9158 9.375 13.75 9.375H7.5C7.33424 9.375 7.17527 9.44085 7.05806 9.55806C6.94085 9.67527 6.875 9.83424 6.875 10C6.875 10.1658 6.94085 10.3247 7.05806 10.4419C7.17527 10.5592 7.33424 10.625 7.5 10.625H13.75C13.9158 10.625 14.0747 10.5592 14.1919 10.4419C14.3092 10.3247 14.375 10.1658 14.375 10Z" fill="#1690F8"/>
</svg>
