<svg width="20" height="20" viewBox="0 0 20 20" fill="none" xmlns="http://www.w3.org/2000/svg">
<path fill-rule="evenodd" clip-rule="evenodd" d="M10 18.75C12.3206 18.75 14.5462 17.8281 16.1872 16.1872C17.8281 14.5462 18.75 12.3206 18.75 10C18.75 7.67936 17.8281 5.45376 16.1872 3.81282C14.5462 2.17187 12.3206 1.25 10 1.25C7.67936 1.25 5.45376 2.17187 3.81282 3.81282C2.17187 5.45376 1.25 7.67936 1.25 10C1.25 12.3206 2.17187 14.5462 3.81282 16.1872C5.45376 17.8281 7.67936 18.75 10 18.75ZM10 20C12.6522 20 15.1957 18.9464 17.0711 17.0711C18.9464 15.1957 20 12.6522 20 10C20 7.34784 18.9464 4.8043 17.0711 2.92893C15.1957 1.05357 12.6522 0 10 0C7.34784 0 4.8043 1.05357 2.92893 2.92893C1.05357 4.8043 0 7.34784 0 10C0 12.6522 1.05357 15.1957 2.92893 17.0711C4.8043 18.9464 7.34784 20 10 20Z" fill="white"/>
<path fill-rule="evenodd" clip-rule="evenodd" d="M10.4424 14.1925C10.5006 14.1344 10.5468 14.0655 10.5783 13.9895C10.6098 13.9136 10.626 13.8322 10.626 13.75C10.626 13.6678 10.6098 13.5864 10.5783 13.5105C10.5468 13.4345 10.5006 13.3656 10.4424 13.3075L7.13365 10L10.4424 6.6925C10.5005 6.63439 10.5466 6.5654 10.5781 6.48948C10.6095 6.41355 10.6257 6.33218 10.6257 6.25C10.6257 6.16782 10.6095 6.08644 10.5781 6.01052C10.5466 5.93459 10.5005 5.86561 10.4424 5.8075C10.3843 5.74939 10.3153 5.70329 10.2394 5.67184C10.1635 5.64039 10.0821 5.62421 9.9999 5.62421C9.91772 5.62421 9.83634 5.64039 9.76042 5.67184C9.68449 5.70329 9.61551 5.74939 9.5574 5.8075L5.8074 9.5575C5.74919 9.61555 5.70301 9.68452 5.67151 9.76045C5.64 9.83639 5.62378 9.91779 5.62378 10C5.62378 10.0822 5.64 10.1636 5.67151 10.2395C5.70301 10.3155 5.74919 10.3844 5.8074 10.4425L9.5574 14.1925C9.61545 14.2507 9.68442 14.2969 9.76035 14.3284C9.83629 14.3599 9.91769 14.3761 9.9999 14.3761C10.0821 14.3761 10.1635 14.3599 10.2394 14.3284C10.3154 14.2969 10.3843 14.2507 10.4424 14.1925Z" fill="white"/>
<path fill-rule="evenodd" clip-rule="evenodd" d="M14.375 10C14.375 9.83424 14.3092 9.67527 14.1919 9.55806C14.0747 9.44085 13.9158 9.375 13.75 9.375H7.5C7.33424 9.375 7.17527 9.44085 7.05806 9.55806C6.94085 9.67527 6.875 9.83424 6.875 10C6.875 10.1658 6.94085 10.3247 7.05806 10.4419C7.17527 10.5592 7.33424 10.625 7.5 10.625H13.75C13.9158 10.625 14.0747 10.5592 14.1919 10.4419C14.3092 10.3247 14.375 10.1658 14.375 10Z" fill="white"/>
</svg>
