<svg width="24" height="30" viewBox="0 0 24 30" fill="none" xmlns="http://www.w3.org/2000/svg">
<path fill-rule="evenodd" clip-rule="evenodd" d="M0.75 3.75C0.75 2.75544 1.14509 1.80161 1.84835 1.09835C2.55161 0.395088 3.50544 0 4.5 0L19.5 0C20.4946 0 21.4484 0.395088 22.1516 1.09835C22.8549 1.80161 23.25 2.75544 23.25 3.75V26.25C23.25 27.2446 22.8549 28.1984 22.1516 28.9016C21.4484 29.6049 20.4946 30 19.5 30H4.5C3.50544 30 2.55161 29.6049 1.84835 28.9016C1.14509 28.1984 0.75 27.2446 0.75 26.25V3.75ZM9.1875 3.75C8.93886 3.75 8.7004 3.84877 8.52459 4.02459C8.34877 4.2004 8.25 4.43886 8.25 4.6875C8.25 4.93614 8.34877 5.1746 8.52459 5.35041C8.7004 5.52623 8.93886 5.625 9.1875 5.625H14.8125C15.0611 5.625 15.2996 5.52623 15.4754 5.35041C15.6512 5.1746 15.75 4.93614 15.75 4.6875C15.75 4.43886 15.6512 4.2004 15.4754 4.02459C15.2996 3.84877 15.0611 3.75 14.8125 3.75H9.1875ZM12 20.625C13.4918 20.625 14.9226 20.0324 15.9775 18.9775C17.0324 17.9226 17.625 16.4918 17.625 15C17.625 13.5082 17.0324 12.0774 15.9775 11.0225C14.9226 9.96763 13.4918 9.375 12 9.375C10.5082 9.375 9.07742 9.96763 8.02252 11.0225C6.96763 12.0774 6.375 13.5082 6.375 15C6.375 16.4918 6.96763 17.9226 8.02252 18.9775C9.07742 20.0324 10.5082 20.625 12 20.625ZM21.375 25.7906C19.7738 24.0469 16.9181 22.5 12 22.5C7.08188 22.5 4.22625 24.0487 2.625 25.7906V26.25C2.625 26.7473 2.82254 27.2242 3.17417 27.5758C3.52581 27.9275 4.00272 28.125 4.5 28.125H19.5C19.9973 28.125 20.4742 27.9275 20.8258 27.5758C21.1775 27.2242 21.375 26.7473 21.375 26.25V25.7906Z" fill="#1690F8"/>
</svg>
