<svg width="18" height="18" viewBox="0 0 18 18" fill="none" xmlns="http://www.w3.org/2000/svg">
<path d="M17.1422 12.0531L15.3966 10.45V7.71875C15.3945 6.24433 14.7992 4.82261 13.7252 3.72668C12.6512 2.63076 11.174 1.93791 9.57759 1.78125V0.59375H8.28448V1.78125C6.69245 1.94792 5.22183 2.64373 4.14992 3.73747C3.07801 4.83122 2.47889 6.24732 2.46552 7.71875V10.45L0.719827 12.0531C0.656722 12.1054 0.606706 12.1697 0.573222 12.2414C0.539737 12.3132 0.52358 12.3907 0.525862 12.4688V14.25C0.520147 14.3293 0.532954 14.4089 0.563425 14.4833C0.593896 14.5577 0.641328 14.6253 0.702545 14.6815C0.763762 14.7377 0.837351 14.7813 0.918385 14.8093C0.999419 14.8372 1.08603 14.849 1.17241 14.8438H5.69828C5.69828 15.6311 6.03887 16.3862 6.64513 16.943C7.25139 17.4997 8.07365 17.8125 8.93103 17.8125C9.78841 17.8125 10.6107 17.4997 11.2169 16.943C11.8232 16.3862 12.1638 15.6311 12.1638 14.8438H16.6897C16.776 14.849 16.8626 14.8372 16.9437 14.8093C17.0247 14.7813 17.0983 14.7377 17.1595 14.6815C17.2207 14.6253 17.2682 14.5577 17.2986 14.4833C17.3291 14.4089 17.3419 14.3293 17.3362 14.25V12.4688C17.3385 12.3907 17.3223 12.3132 17.2888 12.2414C17.2554 12.1697 17.2053 12.1054 17.1422 12.0531ZM8.93103 16.625C8.4166 16.625 7.92325 16.4373 7.55949 16.1033C7.19573 15.7692 6.99138 15.3162 6.99138 14.8438H10.8707C10.8707 15.3162 10.6663 15.7692 10.3026 16.1033C9.93882 16.4373 9.44546 16.625 8.93103 16.625ZM16.0431 13.6562H1.81897V12.7063L3.56465 11.1031C3.62776 11.0508 3.67778 10.9866 3.71126 10.9148C3.74474 10.8431 3.7609 10.7655 3.75862 10.6875V7.71875C3.75862 6.45897 4.30357 5.25079 5.27358 4.35999C6.2436 3.4692 7.55922 2.96875 8.93103 2.96875C10.3028 2.96875 11.6185 3.4692 12.5885 4.35999C13.5585 5.25079 14.1034 6.45897 14.1034 7.71875V10.6875C14.1012 10.7655 14.1173 10.8431 14.1508 10.9148C14.1843 10.9866 14.2343 11.0508 14.2974 11.1031L16.0431 12.7063V13.6562Z" fill="#9D9D9D"/>
</svg>
