<svg width="18" height="21" viewBox="0 0 18 21" fill="none" xmlns="http://www.w3.org/2000/svg">
<path d="M10.5 14.1328V18H13.5C13.9062 18 14.2578 18.1204 14.5547 18.3613C14.8516 18.6022 15 18.8952 15 19.2402C15 19.5853 14.8516 19.8815 14.5547 20.1289C14.2578 20.3763 13.9062 20.5 13.5 20.5H4.5C4.07812 20.5 3.72266 20.3763 3.43359 20.1289C3.14453 19.8815 3 19.5853 3 19.2402C3 18.8952 3.14453 18.6022 3.43359 18.3613C3.72266 18.1204 4.07812 18 4.5 18H7.5V14.1328C5.35938 13.7943 3.57422 12.86 2.14453 11.3301C0.714844 9.80013 0 8.02604 0 6.00781C0 3.91146 0.765625 2.07552 2.29688 0.5H7.5L9 4.25L4.5 5.5L9 11.75L7.5 6.75L12 5.5L10.5 0.5H15.6797C17.2266 2.07552 18 3.91146 18 6.00781C18 8.02604 17.2852 9.80013 15.8555 11.3301C14.4258 12.86 12.6406 13.7943 10.5 14.1328Z" fill="#5C5C5C"/>
</svg>
