<svg width="49" height="37" viewBox="0 0 49 37" fill="none" xmlns="http://www.w3.org/2000/svg">
<path d="M45.4648 30.304C45.4648 31.0996 45.1488 31.8627 44.5862 32.4253C44.0236 32.9879 43.2605 33.304 42.4648 33.304H6.46484C5.66919 33.304 4.90613 32.9879 4.34352 32.4253C3.78091 31.8627 3.46484 31.0996 3.46484 30.304V12.304C3.46484 11.5083 3.78091 10.7452 4.34352 10.1826C4.90613 9.62003 5.66919 9.30396 6.46484 9.30396H9.98084C12.3666 9.30265 14.6541 8.35416 16.3408 6.66695L18.8308 4.18296C19.3919 3.62177 20.1523 3.30571 20.9458 3.30396H27.9778C28.7734 3.30412 29.5364 3.62031 30.0988 4.18296L32.5828 6.66695C33.4187 7.5031 34.4112 8.16635 35.5035 8.61882C36.5958 9.07128 37.7665 9.3041 38.9488 9.30396H42.4648C43.2605 9.30396 44.0236 9.62003 44.5862 10.1826C45.1488 10.7452 45.4648 11.5083 45.4648 12.304V30.304ZM6.46484 6.30396C4.87354 6.30396 3.34742 6.9361 2.2222 8.06131C1.09698 9.18653 0.464844 10.7127 0.464844 12.304L0.464844 30.304C0.464844 31.8953 1.09698 33.4214 2.2222 34.5466C3.34742 35.6718 4.87354 36.304 6.46484 36.304H42.4648C44.0561 36.304 45.5823 35.6718 46.7075 34.5466C47.8327 33.4214 48.4648 31.8953 48.4648 30.304V12.304C48.4648 10.7127 47.8327 9.18653 46.7075 8.06131C45.5823 6.9361 44.0561 6.30396 42.4648 6.30396H38.9488C37.3577 6.30362 35.8318 5.67125 34.7068 4.54596L32.2228 2.06195C31.0979 0.936659 29.572 0.304295 27.9808 0.303955H20.9488C19.3577 0.304295 17.8318 0.936659 16.7068 2.06195L14.2228 4.54596C13.0979 5.67125 11.572 6.30362 9.98084 6.30396H6.46484Z" fill="black"/>
<path d="M24.4648 27.304C22.4757 27.304 20.5681 26.5138 19.1615 25.1073C17.755 23.7007 16.9648 21.7931 16.9648 19.804C16.9648 17.8148 17.755 15.9072 19.1615 14.5007C20.5681 13.0941 22.4757 12.304 24.4648 12.304C26.454 12.304 28.3616 13.0941 29.7681 14.5007C31.1747 15.9072 31.9648 17.8148 31.9648 19.804C31.9648 21.7931 31.1747 23.7007 29.7681 25.1073C28.3616 26.5138 26.454 27.304 24.4648 27.304ZM24.4648 30.304C27.2496 30.304 29.9203 29.1977 31.8895 27.2286C33.8586 25.2594 34.9648 22.5887 34.9648 19.804C34.9648 17.0192 33.8586 14.3485 31.8895 12.3793C29.9203 10.4102 27.2496 9.30396 24.4648 9.30396C21.6801 9.30396 19.0094 10.4102 17.0402 12.3793C15.0711 14.3485 13.9648 17.0192 13.9648 19.804C13.9648 22.5887 15.0711 25.2594 17.0402 27.2286C19.0094 29.1977 21.6801 30.304 24.4648 30.304V30.304ZM9.46484 13.804C9.46484 14.2018 9.30681 14.5833 9.0255 14.8646C8.7442 15.1459 8.36267 15.304 7.96484 15.304C7.56702 15.304 7.18549 15.1459 6.90418 14.8646C6.62288 14.5833 6.46484 14.2018 6.46484 13.804C6.46484 13.4061 6.62288 13.0246 6.90418 12.7433C7.18549 12.462 7.56702 12.304 7.96484 12.304C8.36267 12.304 8.7442 12.462 9.0255 12.7433C9.30681 13.0246 9.46484 13.4061 9.46484 13.804V13.804Z" fill="black"/>
</svg>
