<svg width="20" height="20" viewBox="0 0 20 20" fill="none" xmlns="http://www.w3.org/2000/svg">
<path d="M7.50049 7.5H8.75049V15H7.50049V7.5Z" fill="#5C5C5C"/>
<path d="M11.2505 7.5H12.5005V15H11.2505V7.5Z" fill="#5C5C5C"/>
<path d="M2.50049 3.75V5H3.75049V17.5C3.75049 17.8315 3.88218 18.1495 4.1166 18.3839C4.35103 18.6183 4.66897 18.75 5.00049 18.75H15.0005C15.332 18.75 15.65 18.6183 15.8844 18.3839C16.1188 18.1495 16.2505 17.8315 16.2505 17.5V5H17.5005V3.75H2.50049ZM5.00049 17.5V5H15.0005V17.5H5.00049Z" fill="#5C5C5C"/>
<path d="M7.50049 1.25H12.5005V2.5H7.50049V1.25Z" fill="#5C5C5C"/>
</svg>
