<svg width="18" height="21" viewBox="0 0 18 21" fill="none" xmlns="http://www.w3.org/2000/svg">
<path d="M16.7777 7.02777H12.3333C12.0386 7.02777 11.756 7.1741 11.5476 7.43457C11.3392 7.69503 11.2222 8.0483 11.2222 8.41666V18.8333C11.2222 19.2017 11.3392 19.555 11.5476 19.8154C11.756 20.0759 12.0386 20.2222 12.3333 20.2222H16.7777C17.0724 20.2222 17.355 20.0759 17.5634 19.8154C17.7718 19.555 17.8888 19.2017 17.8888 18.8333V8.41666C17.8888 8.0483 17.7718 7.69503 17.5634 7.43457C17.355 7.1741 17.0724 7.02777 16.7777 7.02777ZM16.7777 8.41666V16.0555H12.3333V8.41666H16.7777ZM12.3333 18.8333V17.1667H16.7777V18.8333H12.3333Z" fill="#5C5C5C"/>
<path d="M10.1111 13.2778H1.2222V2.16666H14.5555V5.63888H15.6666V2.16666C15.6666 1.7983 15.5496 1.44503 15.3412 1.18457C15.1328 0.9241 14.8502 0.777771 14.5555 0.777771H1.2222C0.92751 0.777771 0.644895 0.9241 0.436521 1.18457C0.228147 1.44503 0.111084 1.7983 0.111084 2.16666V13.2778C0.111084 13.6461 0.228147 13.9994 0.436521 14.2599C0.644895 14.5203 0.92751 14.6667 1.2222 14.6667H10.1111V13.2778Z" fill="#5C5C5C"/>
<path d="M10.1111 16.0555H4.00001C3.85267 16.0555 3.71136 16.1287 3.60718 16.2589C3.50299 16.3892 3.44446 16.5658 3.44446 16.75C3.44446 16.9342 3.50299 17.1108 3.60718 17.241C3.71136 17.3713 3.85267 17.4444 4.00001 17.4444H10.1111V16.0555Z" fill="#5C5C5C"/>
</svg>
