<svg width="43" height="41" viewBox="0 0 43 41" fill="none" xmlns="http://www.w3.org/2000/svg">
<path d="M40.2655 11.0502H2.61214C1.94733 11.0502 1.30975 11.3143 0.839654 11.7844C0.369563 12.2544 0.105469 12.892 0.105469 13.5568V37.8768C0.105469 38.5416 0.369563 39.1792 0.839654 39.6493C1.30975 40.1194 1.94733 40.3835 2.61214 40.3835H40.2655C40.9303 40.3835 41.5679 40.1194 42.0379 39.6493C42.508 39.1792 42.7721 38.5416 42.7721 37.8768V13.5568C42.7721 12.892 42.508 12.2544 42.0379 11.7844C41.5679 11.3143 40.9303 11.0502 40.2655 11.0502V11.0502ZM40.1055 37.7168H2.77214V13.7168H40.1055V37.7168Z" fill="black"/>
<path d="M8.85205 23.6501C9.64318 23.6501 10.4165 23.4156 11.0743 22.976C11.7321 22.5365 12.2448 21.9118 12.5476 21.1809C12.8503 20.45 12.9295 19.6457 12.7752 18.8698C12.6209 18.0939 12.2399 17.3811 11.6805 16.8217C11.1211 16.2623 10.4083 15.8813 9.63241 15.727C8.85649 15.5727 8.05222 15.6519 7.32132 15.9546C6.59041 16.2574 5.9657 16.7701 5.52617 17.4279C5.08665 18.0857 4.85205 18.859 4.85205 19.6501C4.85205 20.711 5.27348 21.7284 6.02362 22.4786C6.77377 23.2287 7.79119 23.6501 8.85205 23.6501V23.6501ZM8.85205 17.5168C9.2761 17.5062 9.69367 17.6223 10.0514 17.8501C10.4092 18.078 10.6909 18.4074 10.8606 18.7961C11.0303 19.1849 11.0802 19.6154 11.004 20.0327C10.9278 20.45 10.729 20.8351 10.4329 21.1388C10.1367 21.4425 9.7568 21.651 9.34158 21.7377C8.92637 21.8245 8.49472 21.7855 8.10179 21.6257C7.70886 21.4659 7.37248 21.1926 7.13562 20.8407C6.89876 20.4888 6.77218 20.0743 6.77205 19.6501C6.77188 19.0935 6.9893 18.5588 7.37792 18.1602C7.76653 17.7616 8.29555 17.5307 8.85205 17.5168V17.5168Z" fill="black"/>
<path d="M7.97203 35.0502L15.972 27.0502L20.212 31.2902L16.452 35.0502H19.1187L29.0654 25.1035L37.4387 33.4102V30.7435L29.7054 23.0502C29.5281 22.8743 29.2884 22.7756 29.0387 22.7756C28.789 22.7756 28.5493 22.8743 28.372 23.0502L21.492 29.9302L16.5987 25.0502C16.4214 24.8743 16.1818 24.7756 15.932 24.7756C15.6823 24.7756 15.4427 24.8743 15.2654 25.0502L5.33203 35.0502H7.97203Z" fill="black"/>
<path d="M37.6255 1.71676C37.6255 1.36313 37.485 1.024 37.235 0.773947C36.9849 0.523899 36.6458 0.383423 36.2922 0.383423H6.95882C6.6052 0.383423 6.26606 0.523899 6.01601 0.773947C5.76596 1.024 5.62549 1.36313 5.62549 1.71676V3.05009H37.6255V1.71676Z" fill="black"/>
<path d="M40.2655 7.05013C40.2655 6.69651 40.125 6.35737 39.8749 6.10732C39.6249 5.85727 39.2858 5.7168 38.9321 5.7168H4.26546C3.91184 5.7168 3.5727 5.85727 3.32265 6.10732C3.0726 6.35737 2.93213 6.69651 2.93213 7.05013V8.38346H40.2655V7.05013Z" fill="black"/>
</svg>
