<svg width="20" height="15" viewBox="0 0 20 15" fill="none" xmlns="http://www.w3.org/2000/svg">
<path d="M11.1621 2.69535C10.7806 2.65899 10.393 2.63815 10 2.63297C8.28292 2.63968 6.50295 3.0077 4.81812 3.71289C3.56715 4.25806 2.34857 5.02769 1.29028 5.97704C0.770533 6.46167 0.107183 7.16338 0 7.91206C0.0126667 8.56061 0.80255 9.3611 1.29028 9.8471C2.28267 10.7592 3.46952 11.5068 4.81812 12.1113C4.86395 12.1309 4.90995 12.1502 4.95605 12.1693L3.70485 14.0947L5.40493 14.98L14.5952 0.881259L12.9588 0L11.1621 2.69535V2.69535ZM15.0427 3.65696L13.7939 5.56399C14.3684 6.22165 14.7095 7.03265 14.7095 7.91206C14.7095 10.104 12.6008 11.8811 9.99877 11.8811C9.88628 11.8811 9.77727 11.8704 9.66673 11.8639L8.84032 13.1245C9.22145 13.1604 9.60682 13.1866 9.99998 13.1912C11.7187 13.1844 13.4977 12.8121 15.1807 12.1113C16.4316 11.5661 17.6514 10.7965 18.7097 9.8471C19.2295 9.36249 19.8928 8.66076 20 7.91206C19.9873 7.26352 19.1974 6.46304 18.7097 5.97703C17.7173 5.06496 16.5293 4.31736 15.1807 3.71286C15.1351 3.69342 15.0885 3.67593 15.0427 3.65696V3.65696ZM9.99878 3.94308C10.1129 3.94308 10.2261 3.9471 10.3381 3.95383L9.37012 5.43063C8.01155 5.67333 6.99218 6.69184 6.99218 7.911C6.99218 8.21726 7.0562 8.51046 7.17407 8.78223C7.1742 8.78254 7.17393 8.78301 7.17407 8.78332L6.2036 10.2644C5.62775 9.60617 5.28807 8.7925 5.28807 7.91205C5.28808 5.72013 7.3968 3.94306 9.99878 3.94308V3.94308ZM12.8149 7.05696L10.6336 10.3871C11.9848 10.1398 12.9968 9.12592 12.9968 7.911C12.9968 7.61033 12.9287 7.32447 12.8149 7.05696V7.05696Z" fill="black" fill-opacity="0.5"/>
</svg>
