<svg width="20" height="20" viewBox="0 0 20 20" fill="none" xmlns="http://www.w3.org/2000/svg">
<path d="M19.7511 10.001C19.7546 8.81849 19.5039 7.64712 19.0136 6.55471C18.5232 5.4623 17.8029 4.47057 16.8943 3.63696L15.3625 5.05096C16.7946 6.37296 17.5844 8.13096 17.5844 10.001C17.5844 11.871 16.7946 13.629 15.3625 14.951C13.9303 16.273 12.0258 17.002 9.99998 17.002C7.97415 17.002 6.06965 16.273 4.63748 14.951C3.20531 13.629 2.41557 11.871 2.41557 10.001C2.41557 8.13096 3.20531 6.37296 4.63748 5.05096L3.10565 3.63696C1.26398 5.33596 0.248899 7.59596 0.248899 10.001C0.248899 12.406 1.26398 14.666 3.10565 16.365C4.94623 18.065 7.39456 19.002 9.99998 19.002C12.6054 19.002 15.0537 18.065 16.8943 16.365C17.8029 15.5314 18.5232 14.5396 19.0136 13.4472C19.5039 12.3548 19.7546 11.1834 19.7511 10.001Z" fill="#1690F8"/>
<line x1="10" y1="0.0910645" x2="10" y2="11.0911" stroke="#1690F8" stroke-width="2"/>
</svg>
