<svg width="19" height="20" viewBox="0 0 19 20" fill="none" xmlns="http://www.w3.org/2000/svg">
<path d="M10.5396 8.69474V3.15789H13.414V7.36842H15.3303V1.05263H10.5396V0H1.91629V16.8421H0V18.9474H8.87242C8.11548 17.7579 7.66515 16.3053 7.66515 14.7368C7.66515 12.2316 8.80535 10.0316 10.5396 8.69474ZM6.70701 8.42105H8.6233V10.5263H6.70701V8.42105ZM17.9077 14.0737L19 13.0211L18.0419 11.2L16.6525 11.7158C16.3459 11.4316 16.001 11.2105 15.6178 11.0526L15.3303 9.47368H13.414L13.1266 11.0421C12.7433 11.2 12.3984 11.4211 12.0918 11.7053L10.7025 11.1895L9.74433 13.0105L10.8366 14.0632C10.76 14.5895 10.76 14.8632 10.8366 15.3895L9.74433 16.4421L10.7025 18.2632L12.0918 17.7474C12.3984 18.0316 12.7433 18.2526 13.1266 18.4105L13.414 20H15.3303L15.6178 18.4316C16.001 18.2737 16.3459 18.0526 16.6525 17.7684L18.0419 18.2842L19 16.4632L17.9077 15.4105C17.9844 14.8737 17.9844 14.6 17.9077 14.0737ZM14.3722 16.8421C13.3182 16.8421 12.4559 15.8947 12.4559 14.7368C12.4559 13.5789 13.3182 12.6316 14.3722 12.6316C15.4261 12.6316 16.2885 13.5789 16.2885 14.7368C16.2885 15.8947 15.4261 16.8421 14.3722 16.8421Z" fill="#1690F8"/>
</svg>
