<svg width="25" height="13" viewBox="0 0 25 13" fill="none" xmlns="http://www.w3.org/2000/svg">
<path d="M13.2386 4.33333C12.3068 1.80917 9.78409 0 6.81818 0C3.05682 0 0 2.91417 0 6.5C0 10.0858 3.05682 13 6.81818 13C9.78409 13 12.3068 11.1908 13.2386 8.66667H18.1818V13H22.7273V8.66667H25V4.33333H13.2386ZM6.81818 8.66667C5.56818 8.66667 4.54545 7.69167 4.54545 6.5C4.54545 5.30833 5.56818 4.33333 6.81818 4.33333C8.06818 4.33333 9.09091 5.30833 9.09091 6.5C9.09091 7.69167 8.06818 8.66667 6.81818 8.66667Z" fill="#1690F8"/>
</svg>
