<svg width="20" height="26" viewBox="0 0 20 26" fill="none" xmlns="http://www.w3.org/2000/svg">
<path d="M9.5979 12.8534C9.35376 12.0721 9.35864 10.5634 9.50024 10.5634C9.9104 10.5634 9.87134 12.3651 9.5979 12.8534ZM9.51489 15.1581C9.13892 16.1444 8.67017 17.2723 8.12817 18.2196C9.02173 17.8778 10.0325 17.3798 11.1995 17.1503C10.5793 16.6815 9.98364 16.0077 9.51489 15.1581ZM4.92017 21.2518C4.92017 21.2909 5.5647 20.9882 6.62427 19.2889C6.29712 19.5966 5.20337 20.4852 4.92017 21.2518ZM12.8254 8.16101H19.4661V24.1766C19.4661 24.826 18.9436 25.3485 18.2942 25.3485H1.88794C1.23853 25.3485 0.716064 24.826 0.716064 24.1766V1.52039C0.716064 0.870972 1.23853 0.348511 1.88794 0.348511H11.6536V6.98914C11.6536 7.63367 12.1809 8.16101 12.8254 8.16101ZM12.4348 16.5497C11.4583 15.954 10.8088 15.1337 10.3499 13.9227C10.5696 13.0194 10.9163 11.6473 10.6526 10.788C10.4231 9.35242 8.58228 9.49402 8.3186 10.4559C8.07446 11.3495 8.29907 12.6093 8.71411 14.2157C8.14771 15.5634 7.31274 17.37 6.72192 18.4052C6.71704 18.4052 6.71704 18.41 6.71216 18.41C5.38892 19.0887 3.11841 20.5829 4.05103 21.7303C4.32446 22.0673 4.83228 22.2186 5.10083 22.2186C5.97485 22.2186 6.84399 21.3397 8.08423 19.2011C9.34399 18.786 10.7258 18.2684 11.9417 18.0682C13.0012 18.6444 14.2415 19.0204 15.0667 19.0204C16.4924 19.0204 16.5901 17.4579 16.0286 16.9012C15.3499 16.2372 13.3772 16.4276 12.4348 16.5497V16.5497ZM19.1243 5.47546L14.3391 0.690308C14.1194 0.470581 13.8215 0.348511 13.509 0.348511H13.2161V6.59851H19.4661V6.30066C19.4661 5.99304 19.344 5.69519 19.1243 5.47546ZM15.5061 17.9413C15.7063 17.8094 15.384 17.3602 13.4163 17.5018C15.2278 18.2733 15.5061 17.9413 15.5061 17.9413Z" fill="#1690F8"/>
</svg>
