<svg width="20" height="20" viewBox="0 0 20 20" fill="none" xmlns="http://www.w3.org/2000/svg">
<path d="M1.64125 0.555664C1.35331 0.555664 1.07715 0.670051 0.87354 0.873662C0.669929 1.07727 0.555542 1.35343 0.555542 1.64138V5.98422H5.9841V0.555664H1.64125ZM4.62696 4.62708H1.91268V1.9128H4.62696V4.62708Z" fill="#1690F8"/>
<path d="M0.555542 18.47C0.555542 18.758 0.669929 19.0341 0.87354 19.2378C1.07715 19.4414 1.35331 19.5558 1.64125 19.5558H5.9841V14.1272H0.555542V18.47ZM1.91268 15.4843H4.62696V18.1986H1.91268V15.4843Z" fill="#1690F8"/>
<path d="M14.127 19.5558H18.4698C18.7578 19.5558 19.0339 19.4414 19.2375 19.2378C19.4411 19.0341 19.5555 18.758 19.5555 18.47V14.1272H14.127V19.5558ZM15.4841 15.4843H18.1984V18.1986H15.4841V15.4843Z" fill="#1690F8"/>
<path d="M18.4698 0.555664H14.127V5.98422H19.5555V1.64138C19.5555 1.35343 19.4411 1.07727 19.2375 0.873662C19.0339 0.670051 18.7578 0.555664 18.4698 0.555664ZM18.1984 4.62708H15.4841V1.9128H18.1984V4.62708Z" fill="#1690F8"/>
<path d="M11.4128 4.62716V3.27002H8.69849V5.9843H10.0556V4.62716H11.4128Z" fill="#1690F8"/>
<path d="M5.98413 5.98413H7.34127V7.34127H5.98413V5.98413Z" fill="#1690F8"/>
<path d="M7.34131 7.34131H10.0556V8.69845H7.34131V7.34131Z" fill="#1690F8"/>
<path d="M11.4126 1.9128V3.26994H12.7697V0.555664H7.34119V3.26994H8.69833V1.9128H11.4126Z" fill="#1690F8"/>
<path d="M0.555542 7.34131H1.91268V10.0556H0.555542V7.34131Z" fill="#1690F8"/>
<path d="M5.9841 8.69845V10.0556H4.62696V7.34131H3.26982V10.0556H1.91268V11.4127H0.555542V12.7699H3.26982V11.4127H4.62696V12.7699H5.9841V11.4127H7.34124V8.69845H5.9841Z" fill="#1690F8"/>
<path d="M11.4127 8.69861H12.7698V10.0558H14.127V8.69861H15.4841V7.34148H12.7698V4.6272H11.4127V5.98434H10.0555V7.34148H11.4127V8.69861Z" fill="#1690F8"/>
<path d="M10.0556 18.1984H7.34131V19.5556H12.7699V18.1984H11.4127V16.8413H10.0556V18.1984Z" fill="#1690F8"/>
<path d="M12.7699 11.4128V10.0556H11.4128V8.69849H10.0556V10.0556H8.69849V11.4128H10.0556V12.7699H11.4128V11.4128H12.7699Z" fill="#1690F8"/>
<path d="M18.1985 11.4128H19.5556V12.77H18.1985V11.4128Z" fill="#1690F8"/>
<path d="M12.7698 11.4128H16.8412V12.77H12.7698V11.4128Z" fill="#1690F8"/>
<path d="M18.1984 7.34131H16.8413V8.69845H15.4841V10.0556H16.8413V11.4127H18.1984V10.0556H19.5556V8.69845H18.1984V7.34131Z" fill="#1690F8"/>
<path d="M11.4126 12.7698H12.7697V16.8412H11.4126V12.7698Z" fill="#1690F8"/>
<path d="M7.34131 16.8414H8.69845V15.4843H10.0556V14.1271H8.69845V11.4128H7.34131V16.8414Z" fill="#1690F8"/>
</svg>
