<svg width="21" height="21" viewBox="0 0 21 21" fill="none" xmlns="http://www.w3.org/2000/svg">
<path d="M10.2444 6.29059C7.80688 6.29059 5.86938 8.22809 5.86938 10.6656C5.86938 13.1031 7.80688 15.0406 10.2444 15.0406C12.6819 15.0406 14.6194 13.1031 14.6194 10.6656C14.6194 8.22809 12.6819 6.29059 10.2444 6.29059ZM10.2444 13.7906C8.49439 13.7906 7.11938 12.4156 7.11938 10.6656C7.11938 8.91559 8.49439 7.54059 10.2444 7.54059C11.9944 7.54059 13.3694 8.91559 13.3694 10.6656C13.3694 12.4156 11.9944 13.7906 10.2444 13.7906Z" fill="white"/>
<path d="M19.4319 8.60309L17.6819 8.04059L17.3069 7.10309L18.1819 5.47809C18.3694 5.10309 18.3069 4.60309 17.9944 4.29059L16.4944 2.79059C16.1819 2.47809 15.6819 2.41559 15.3069 2.60309L13.6819 3.47809L12.7444 3.10309L12.1819 1.35309C12.0569 0.978088 11.6819 0.665588 11.2444 0.665588H9.11938C8.68188 0.665588 8.30688 0.978088 8.24438 1.41559L7.68188 3.16559C7.30688 3.22809 6.99438 3.35309 6.68188 3.54059L5.05688 2.66559C4.68188 2.47809 4.18188 2.54059 3.86938 2.85309L2.36938 4.35309C2.05688 4.66559 1.99438 5.16559 2.18188 5.54059L2.99438 7.10309C2.86938 7.41559 2.74438 7.79059 2.61938 8.10309L0.869385 8.66559C0.494385 8.79059 0.181885 9.16559 0.181885 9.60309V11.7281C0.181885 12.1656 0.494385 12.5406 0.931885 12.6656L2.68188 13.2281L3.05688 14.1656L2.18188 15.7906C1.99438 16.1656 2.05688 16.6656 2.36938 16.9781L3.86938 18.4781C4.18188 18.7906 4.68188 18.8531 5.05688 18.6656L6.68188 17.7906L7.61938 18.1656L8.18188 19.9781C8.30688 20.3531 8.68188 20.6656 9.11938 20.6656H11.2444C11.6819 20.6656 12.0569 20.3531 12.1819 19.9781L12.7444 18.1656L13.6819 17.7906L15.3069 18.6656C15.6819 18.8531 16.1819 18.7906 16.4944 18.4781L17.9944 16.9781C18.3069 16.6656 18.3694 16.1656 18.1819 15.7906L17.3069 14.1656L17.6819 13.2281L19.4944 12.6656C19.8694 12.5406 20.1819 12.1656 20.1819 11.7281V9.60309C20.1819 9.16559 19.8694 8.72809 19.4319 8.60309ZM18.9319 11.5406L16.6819 12.2281L16.6194 12.5406L16.0569 13.8531L15.8694 14.1656L16.9944 16.2281L15.7444 17.4781L13.6819 16.3531L13.3694 16.5406C12.9319 16.7906 12.4944 16.9781 12.0569 17.1031L11.7444 17.1656L11.0569 19.4156H9.30688L8.61938 17.1656L8.30688 17.1031L6.99438 16.5406L6.68188 16.3531L4.61938 17.4781L3.36938 16.2281L4.49438 14.1656L4.30688 13.8531C4.05688 13.4156 3.86938 12.9781 3.74438 12.5406L3.68188 12.2281L1.43188 11.5406V9.79059L3.55688 9.16559L3.68188 8.85309C3.80688 8.35309 3.99438 7.91559 4.24438 7.47809L4.43188 7.16559L3.36938 5.10309L4.61938 3.85309L6.61938 4.97809L6.93188 4.79059C7.36938 4.54059 7.80688 4.35309 8.30688 4.22809L8.61938 4.10309L9.30688 1.91559H11.0569L11.7444 4.10309L12.0569 4.22809C12.4944 4.35309 12.9319 4.54059 13.3694 4.79059L13.6819 4.97809L15.7444 3.85309L16.9944 5.10309L15.8694 7.16559L16.0569 7.47809C16.3069 7.91559 16.4944 8.35309 16.6194 8.79059L16.6819 9.10309L18.9319 9.79059V11.5406Z" fill="white"/>
</svg>
