<svg width="20" height="20" viewBox="0 0 20 20" fill="none" xmlns="http://www.w3.org/2000/svg">
<path d="M10.0611 5.72217C7.67777 5.72217 5.78333 7.61661 5.78333 9.99995C5.78333 12.3833 7.67777 14.2777 10.0611 14.2777C12.4444 14.2777 14.3389 12.3833 14.3389 9.99995C14.3389 7.61661 12.4444 5.72217 10.0611 5.72217ZM10.0611 13.0555C8.34999 13.0555 7.00555 11.7111 7.00555 9.99995C7.00555 8.28883 8.34999 6.94439 10.0611 6.94439C11.7722 6.94439 13.1167 8.28883 13.1167 9.99995C13.1167 11.7111 11.7722 13.0555 10.0611 13.0555Z" fill="#1690F8"/>
<path d="M19.0444 7.98328L17.3333 7.43328L16.9666 6.51661L17.8222 4.92772C18.0055 4.56106 17.9444 4.07217 17.6388 3.76661L16.1722 2.29995C15.8666 1.99439 15.3777 1.93328 15.0111 2.11661L13.4222 2.97217L12.5055 2.6055L11.9555 0.89439C11.8333 0.527723 11.4666 0.222168 11.0388 0.222168H8.96106C8.53328 0.222168 8.16661 0.527724 8.1055 0.955501L7.5555 2.66661C7.18884 2.72772 6.88328 2.84995 6.57772 3.03328L4.98884 2.17772C4.62217 1.99439 4.13328 2.0555 3.82772 2.36106L2.36106 3.82772C2.0555 4.13328 1.99439 4.62217 2.17772 4.98884L2.97217 6.51661C2.84995 6.82217 2.72772 7.18884 2.6055 7.49439L0.89439 8.04439C0.527723 8.16661 0.222168 8.53328 0.222168 8.96106V11.0388C0.222168 11.4666 0.527724 11.8333 0.955501 11.9555L2.66661 12.5055L3.03328 13.4222L2.17772 15.0111C1.99439 15.3777 2.0555 15.8666 2.36106 16.1722L3.82772 17.6388C4.13328 17.9444 4.62217 18.0055 4.98884 17.8222L6.57772 16.9666L7.49439 17.3333L8.04439 19.1055C8.16661 19.4722 8.53328 19.7777 8.96106 19.7777H11.0388C11.4666 19.7777 11.8333 19.4722 11.9555 19.1055L12.5055 17.3333L13.4222 16.9666L15.0111 17.8222C15.3777 18.0055 15.8666 17.9444 16.1722 17.6388L17.6388 16.1722C17.9444 15.8666 18.0055 15.3777 17.8222 15.0111L16.9666 13.4222L17.3333 12.5055L19.1055 11.9555C19.4722 11.8333 19.7777 11.4666 19.7777 11.0388V8.96106C19.7777 8.53328 19.4722 8.1055 19.0444 7.98328ZM18.5555 10.8555L16.3555 11.5277L16.2944 11.8333L15.7444 13.1166L15.5611 13.4222L16.6611 15.4388L15.4388 16.6611L13.4222 15.5611L13.1166 15.7444C12.6888 15.9888 12.2611 16.1722 11.8333 16.2944L11.5277 16.3555L10.8555 18.5555H9.14439L8.47217 16.3555L8.16661 16.2944L6.88328 15.7444L6.57772 15.5611L4.56106 16.6611L3.33883 15.4388L4.43883 13.4222L4.2555 13.1166C4.01106 12.6888 3.82772 12.2611 3.7055 11.8333L3.64439 11.5277L1.44439 10.8555V9.14439L3.52217 8.53328L3.64439 8.22772C3.76661 7.73884 3.94995 7.31106 4.19439 6.88328L4.37772 6.57772L3.33883 4.56106L4.56106 3.33883L6.51661 4.43883L6.82217 4.2555C7.24995 4.01106 7.67772 3.82772 8.16661 3.7055L8.47217 3.58328L9.14439 1.44439H10.8555L11.5277 3.58328L11.8333 3.7055C12.2611 3.82772 12.6888 4.01106 13.1166 4.2555L13.4222 4.43883L15.4388 3.33883L16.6611 4.56106L15.5611 6.57772L15.7444 6.88328C15.9888 7.31106 16.1722 7.73884 16.2944 8.16661L16.3555 8.47217L18.5555 9.14439V10.8555Z" fill="#1690F8"/>
</svg>
